<svg xmlns="http://www.w3.org/2000/svg" viewBox="0 0 512 512" fill="none">
  <rect width="512" height="512" rx="128" fill="#10B981"/>
  <path d="M256 120C180.889 120 120 180.889 120 256C120 331.111 180.889 392 256 392C331.111 392 392 331.111 392 256C392 180.889 331.111 120 256 120ZM256 352C202.981 352 160 309.019 160 256C160 202.981 202.981 160 256 160C309.019 160 352 202.981 352 256C352 309.019 309.019 352 256 352Z" fill="white"/>
  <path d="M256 192C220.654 192 192 220.654 192 256C192 291.346 220.654 320 256 320C291.346 320 320 291.346 320 256C320 220.654 291.346 192 256 192Z" fill="white"/>
</svg>
